<?xml version="1.0" encoding="UTF-8" standalone="no"?>
<svg
   width="96"
   height="96"
   viewBox="0 0 96 96"
   fill="none"
   version="1.1"
   id="svg4"
   xmlns="http://www.w3.org/2000/svg"
   xmlns:svg="http://www.w3.org/2000/svg">
  <defs
     id="defs4" />
  <path
     d="m 44,2.3093509 c 2.4752,-1.42906702 5.5248,-1.42906602 8,0 L 85.5692,21.690501 c 2.4752,1.4291 4,4.0701 4,6.9282 v 38.7624 c 0,2.8582 -1.5248,5.4992 -4,6.9282 L 52,93.690501 c -2.4752,1.4291 -5.5248,1.4291 -8,0 l -33.5692,-19.3812 c -2.47523,-1.429 -4.00002,-4.07 -4.00002,-6.9282 v -38.7624 c 0,-2.8581 1.52479,-5.4991 4.00002,-6.9282 z"
     fill="#ffffff"
     id="path1" />
  <path
     fill="#666666"
     d="m 49.967729,48.972049 c -0.830149,-0.109643 -0.606448,-0.65562 -0.901475,-0.65562 -0.295028,0 -0.59006,0.737572 -0.96704,1.163726 -0.376981,0.426152 -1.032604,0.311419 -1.032604,-0.606449 0,-0.917867 -0.196684,-0.721182 -0.196684,-0.721182 -0.213076,0.327811 -1.340763,2.484824 -1.896955,2.349172 -0.541227,-0.132007 -0.858001,-0.223049 -0.950443,-0.528027 0,0 -1.016447,0.805239 -1.80848,1.372865 -0.725436,0.519894 -1.347462,0.355317 -1.347462,0.355317 0,-0.577819 0.463142,-1.815545 -0.02962,-1.51122 -1.211635,0.748277 -3.533047,2.339579 -3.348393,1.407511 0.311133,-1.570488 0.275086,-2.097472 0.275086,-2.097472 -1.407621,0.992552 -3.591238,1.353479 -3.970212,1.371528 -0.378976,0.01805 -1.281294,-0.541392 0.342881,-1.696363 1.624177,-1.15497 1.407622,-1.40762 1.371531,-1.732457 -0.0361,-0.324833 -1.551994,0.288744 -2.725009,0.360932 -0.326216,0.02007 -2.851333,-0.126327 -1.227157,-0.794044 1.624176,-0.667718 3.626401,-2.504274 3.626401,-2.504274 -2.574833,1.584513 -5.347731,1.103499 -6.111689,0.650782 -0.763962,-0.452718 -0.0283,-0.594191 -0.0283,-0.594191 4.923302,-0.792254 4.923302,-1.697691 4.923302,-1.697691 -5.828739,1.329857 -7.073712,0.481009 -8.120626,-0.282949 -1.046906,-0.763964 -0.0283,-0.877141 -0.0283,-0.877141 6.309753,0.0566 8.403571,-1.358151 8.403571,-1.358151 l -0.422104,-0.08724 c -4.355863,1.015276 -9.202987,0.524016 -10.316518,-0.360261 -1.113528,-0.884271 0.39301,-1.113528 0.39301,-1.113528 7.270688,0.687772 10.938785,-0.818772 10.938785,-0.818772 0,0 -6.189912,-0.03275 -9.23574,-0.229254 -3.045838,-0.196506 -5.338397,-1.866799 -5.633152,-2.521815 -0.294762,-0.655021 0.851521,-0.393012 0.851521,-0.393012 1.87563,0.343285 3.178835,0.776417 4.552368,0.949773 6.746677,0.851525 8.38422,-0.294756 8.38422,-0.294756 0,0 -0.229256,0 -1.834049,0.163755 -1.604792,0.163751 -1.768543,-0.589515 -1.768543,-0.589515 -2.856604,0.174449 -3.891962,-0.1734 -8.185379,-1.675041 -4.426642,-1.548235 -4.731926,-2.573122 -4.731926,-2.87841 0,-0.305284 1.508571,-0.165756 1.508571,-0.165756 4.36221,1.951515 14.060104,3.278133 15.590704,2.818951 1.530603,-0.459182 -0.09337,-0.446523 -0.09337,-0.446523 0,0 -3.94517,-0.186898 -8.178105,-1.224286 -3.872769,-0.949123 -7.131618,-2.279013 -8.391364,-3.489869 -1.193042,-1.146731 0.612954,-1.063862 1.607846,-0.949064 0.99489,0.114795 10.101963,3.558646 17.312003,3.829151 1.322453,0.175897 1.428225,0.02312 1.428225,0.02312 -1.309058,-0.306291 -3.75342,-0.451289 -4.709004,-1.157588 -0.955587,-0.706304 -0.745841,-1.717281 -0.148321,-1.271351 1.520292,1.134595 5.559544,1.688975 5.559544,1.688975 4.362464,0.29083 6.030144,-0.679985 9.098845,0.997135 2.430187,1.328153 1.622223,2.955867 1.374323,4.512152 -0.63313,3.974638 0.288428,5.883761 1.640034,7.407191 1.579916,1.780765 3.591658,2.206717 3.591658,2.206717 1.038679,0.207737 0.914038,0.955586 0.332376,1.246416 0,0 -3.90009,2.56284 -4.768787,2.448107 z M 47.936625,36.122073 c 0,0 0.864773,-2.179057 -0.57648,-3.620311 -1.268264,-1.268264 -3.285372,-0.960092 -3.285372,-0.960092 -0.183806,0.06128 -0.155047,0.253448 0.05707,0.268309 0,0 1.775566,0.138359 2.651821,1.222147 0.876255,1.083788 1.014611,2.536522 1.014611,2.88241 0,0.345892 0.138354,0.207537 0.138354,0.207537 z m 14.421533,5.601225 c 2.48171,-1.61048 8.527581,-1.504869 8.527581,-1.504869 -8.461528,-5.269672 -14.731867,-4.541001 -20.022009,-4.681569 1.324491,0.134418 9.655539,3.75964 11.494428,6.186438 z M 54.698283,58.91597 c 0,0 -1.910613,-1.249119 -2.955594,-2.823251 -0.494675,-0.745165 -0.566388,-1.886858 -0.573474,-2.404176 -0.02172,-1.586019 1.213119,-2.007157 1.918931,-1.874817 0.843103,0.158082 1.820918,0.990124 1.820918,0.990124 -0.431347,-2.159129 0.329087,-2.816294 6.538559,-2.732601 1.048219,0.01414 1.89687,-0.220564 3.44365,0.783806 l 3.445614,2.229513 4.891669,-1.119829 c -0.09446,1.96196 0.931429,5.650691 0.931429,5.650691 0.06498,0.345221 0.29791,0.687903 -0.351867,0.875098 -0.252715,0.07279 -0.63222,0.194768 -0.973947,0.260221 -0.413149,0.07914 -0.73112,0.409772 -0.796514,0.825313 l -0.285333,1.81317 h -2.402666 v 0.701804 c 0.212464,0.221301 1.184601,0.480683 1.630687,0.421083 0.719358,-0.09611 0.655767,0.931504 0.431792,1.023257 -0.223981,0.09176 -0.666027,0.0085 -0.909004,0.208311 -0.09931,0.08164 -0.274379,0.295772 -0.265128,0.549192 0.01337,0.366655 0.255845,0.815189 0.359812,1.060507 0.427232,1.00805 0.966566,2.506351 0.0082,2.960302 -0.54189,0.256684 -2.162563,0.05083 -3.48562,-0.116967 -4.795648,-0.608232 -8.983069,-4.846784 -9.100037,-5.057326 -0.116968,-0.210538 -0.65502,-0.767638 -0.65502,-0.767638 0.818772,6.175863 4.480419,6.780913 5.628369,7.182696 -0.889659,1.348839 -0.947058,2.726384 -0.947058,2.726384 0.694401,-0.964556 1.638597,-1.383565 3.965365,-2.178311 0.540341,-0.184556 1.002654,-0.220696 1.439567,-0.222823 3.959945,-0.01924 4.30647,-1.614184 4.553538,-2.190672 0.258287,-0.602672 0.02871,-2.496792 -0.200894,-2.927273 -0.229587,-0.430479 0.717471,-1.119252 0.717471,-1.119252 0,0 0,-1.147949 0,-1.291441 0,-0.143495 0.229587,-0.315689 0.430481,-0.573977 0.200888,-0.258287 -0.0096,-2.018477 -0.0096,-2.018477 0,0 2.537228,0.261451 2.422432,-0.848232 -0.114795,-1.109685 -0.96836,-2.786947 -1.159689,-3.628777 -0.191323,-0.84183 0.535715,-4.706596 0.535715,-4.706596 2.716814,-1.76019 2.21937,-9.221865 2.21937,-9.221865 -9.260135,0.841828 -15.516463,3.405584 -18.558533,4.668331 -3.042066,1.262744 -5.236782,2.995371 -9.598992,6.152236 -5.984435,4.330838 -10.777127,8.656323 -10.777127,8.656323 0,0 -1.721924,1.836717 -1.147946,3.156861 0.573974,1.320145 1.320141,1.320145 1.320141,1.320145 0,0 7.059894,-9.126207 11.823887,-10.503747 2.17666,3.994984 3.368159,3.805975 4.67638,4.11268 z"
     id="path1-3"
     style="stroke-width:0.116764" />
  <path
     fill-rule="evenodd"
     clip-rule="evenodd"
     d="M 84.1907,22.902401 51.5701,4.0689609 c -2.2379,-1.29207 -4.9951,-1.29207 -7.2331,0 L 11.7165,22.902401 c -2.23797,1.2921 -3.61659,3.68 -3.61659,6.2641 v 37.667 c 0,2.5841 1.37862,4.972 3.61659,6.264 l 32.6205,18.8335 c 2.238,1.2921 4.9952,1.2921 7.2331,0 l 32.6206,-18.8335 c 2.2379,-1.292 3.6165,-3.6799 3.6165,-6.264 v -37.667 c 0,-2.5841 -1.3786,-4.972 -3.6165,-6.2641 z M 53.1201,1.3843609 c -3.1971,-1.84581402 -7.136,-1.84581502 -10.333,0 L 10.1665,20.217801 C 6.96946,22.063701 5,25.474901 5,29.166501 v 37.667 c 0,3.6916 1.96946,7.1028 5.1665,8.9486 l 32.6206,18.8335 c 3.197,1.8458 7.1359,1.8458 10.333,0 l 32.6205,-18.8335 c 3.1971,-1.8458 5.1665,-5.257 5.1665,-8.9486 v -37.667 c 0,-3.6916 -1.9694,-7.1028 -5.1665,-8.9487 z"
     fill="#392E2E"
     id="path2"
     style="fill:#666666;fill-opacity:1" />
</svg>
